<?xml version="1.0" standalone="no"?>
<!DOCTYPE svg PUBLIC "-//W3C//DTD SVG 20010904//EN"
 "http://www.w3.org/TR/2001/REC-SVG-20010904/DTD/svg10.dtd">
<svg version="1.0" xmlns="http://www.w3.org/2000/svg"
 width="256.000000pt" height="256.000000pt" viewBox="0 0 256.000000 256.000000"
 preserveAspectRatio="xMidYMid meet">

<g transform="translate(0.000000,256.000000) scale(0.100000,-0.100000)"
fill="#000000" stroke="none">
<path d="M880 2543 c-47 -17 -92 -81 -121 -173 -18 -60 -20 -61 -99 -85 -30
-9 -80 -31 -110 -49 -54 -33 -56 -34 -125 -24 -152 21 -263 -4 -284 -63 -20
-59 24 -163 109 -254 42 -45 48 -56 53 -109 3 -32 17 -82 31 -111 14 -28 26
-66 26 -84 0 -57 47 -120 115 -154 20 -10 42 -37 65 -80 33 -62 34 -66 17 -84
-9 -11 -17 -25 -17 -31 0 -17 20 -15 26 3 9 23 21 18 32 -14 8 -22 7 -34 -3
-48 -19 -24 -18 -33 0 -33 8 0 15 5 15 12 0 48 43 -109 55 -199 11 -83 4 -93
-63 -93 -80 0 -246 -26 -319 -51 -104 -34 -111 -46 -182 -308 -77 -281 -80
-298 -52 -333 59 -74 283 -128 601 -143 218 -11 548 20 675 63 52 18 54 18 92
-2 33 -18 55 -21 178 -20 199 0 362 38 544 125 104 51 223 162 269 254 93 185
93 368 3 643 -44 134 -78 206 -154 326 -237 380 -591 683 -946 810 -87 31 -91
33 -130 92 -99 149 -230 243 -301 217z m78 -67 c58 -30 200 -200 225 -270 6
-14 14 -17 34 -13 54 10 246 -79 414 -192 128 -86 239 -179 239 -200 0 -8 -41
-54 -91 -102 -101 -98 -112 -125 -52 -143 47 -13 130 30 190 100 l47 54 33
-32 c18 -18 33 -39 33 -47 -1 -21 -41 -65 -123 -136 -38 -32 -73 -67 -78 -77
-29 -54 37 -83 119 -53 31 12 70 41 113 84 l66 66 37 -53 c45 -64 44 -65 -76
-161 -84 -67 -99 -90 -78 -116 31 -37 130 -4 208 69 l49 46 35 -77 c169 -372
157 -670 -35 -857 -81 -79 -162 -125 -295 -170 -151 -50 -273 -69 -402 -64
-112 5 -178 27 -200 67 -17 34 -12 96 13 131 44 67 132 93 360 111 275 20 431
90 524 236 47 74 55 97 39 119 -12 16 -17 12 -46 -45 -88 -176 -228 -247 -531
-271 -79 -6 -157 -13 -173 -17 -16 -3 -27 -2 -24 3 2 5 16 34 30 64 33 68 39
113 17 118 -12 2 -21 -11 -34 -50 -23 -71 -80 -164 -105 -171 -17 -4 -24 12
-65 142 -26 80 -58 160 -71 178 -45 60 -203 99 -447 110 -137 6 -138 6 -133
29 8 32 -12 163 -39 258 l-24 81 27 38 c15 21 31 44 37 52 5 8 6 18 1 22 -4 4
-23 -10 -42 -32 -28 -33 -36 -37 -44 -25 -15 22 -13 29 20 70 33 42 36 50 17
50 -7 0 -24 -14 -36 -31 l-23 -31 -30 52 c-24 42 -27 54 -16 61 7 5 18 9 24 9
6 0 23 9 38 21 14 11 26 15 26 9 0 -12 116 -70 140 -70 9 0 23 -13 33 -29 15
-26 15 -31 0 -70 -12 -30 -13 -45 -5 -53 8 -8 16 -1 31 23 12 19 22 38 24 42
1 4 31 1 66 -7 67 -16 81 -14 81 9 0 9 -24 18 -71 26 -58 10 -73 17 -90 41
l-21 28 30 35 c17 18 36 50 43 69 12 34 15 35 50 30 110 -18 209 63 209 170 0
128 -136 214 -248 157 -42 -22 -63 -43 -86 -88 -28 -57 -15 -147 28 -183 17
-13 17 -14 -1 -21 -10 -4 -29 -8 -43 -9 -14 0 -51 -11 -82 -24 l-57 -23 6 46
c11 92 -52 170 -146 179 -54 5 -118 -22 -145 -60 l-15 -21 -12 29 c-6 16 -16
59 -23 95 -10 58 -17 73 -57 115 -58 63 -98 130 -101 174 -4 45 25 60 118 60
106 0 134 -8 134 -36 0 -13 2 -24 4 -24 3 0 34 22 70 49 58 44 131 79 201 97
22 5 25 3 25 -20 0 -14 4 -26 9 -26 16 0 28 25 36 75 15 107 74 215 116 215
11 0 32 -6 47 -14z m113 -621 c66 -34 89 -128 48 -194 l-21 -35 -13 31 c-24
56 -71 68 -111 27 -19 -18 -24 -31 -20 -50 7 -28 -1 -30 -32 -8 -51 36 -68
125 -33 178 41 62 118 84 182 51z m-471 -140 c55 -29 76 -105 45 -165 -16 -30
-35 -40 -35 -18 0 23 -34 48 -66 48 -35 0 -64 -28 -64 -62 0 -17 -2 -17 -23
-3 -67 43 -60 154 12 198 33 21 93 22 131 2z m228 -173 c19 -13 -18 -42 -63
-49 -33 -5 -37 -4 -33 13 2 11 18 24 38 31 43 15 42 15 58 5z"/>
<path d="M715 1980 c-6 -9 45 -93 64 -105 24 -14 19 19 -9 59 -34 51 -46 61
-55 46z"/>
<path d="M766 1981 c-7 -11 50 -61 70 -61 22 0 16 16 -17 44 -33 28 -44 31
-53 17z"/>
<path d="M566 1883 c7 -54 11 -63 25 -63 10 0 12 53 3 88 -4 12 -13 22 -21 22
-11 0 -13 -10 -7 -47z"/>
<path d="M516 1879 c-9 -47 -7 -59 8 -59 12 0 26 40 26 76 0 28 -28 13 -34
-17z"/>
<path d="M1050 1467 c0 -10 38 -16 147 -25 142 -11 163 -10 163 8 0 10 -58 17
-207 25 -81 4 -103 2 -103 -8z"/>
<path d="M1050 1407 c0 -15 285 -105 297 -93 15 15 5 19 -279 102 -11 3 -18 0
-18 -9z"/>
</g>
</svg>
