<?xml version="1.0" standalone="no"?>
<!DOCTYPE svg PUBLIC "-//W3C//DTD SVG 20010904//EN"
 "http://www.w3.org/TR/2001/REC-SVG-20010904/DTD/svg10.dtd">
<svg version="1.0" xmlns="http://www.w3.org/2000/svg"
 width="128.000000pt" height="128.000000pt" viewBox="0 0 128.000000 128.000000"
 preserveAspectRatio="xMidYMid meet">

<g transform="translate(0.000000,128.000000) scale(0.100000,-0.100000)"
fill="#000000" stroke="none">
<path d="M574 1211 c-17 -10 -39 -30 -50 -43 -11 -15 -35 -28 -56 -32 -61 -11
-79 -45 -76 -135 l3 -76 245 0 245 0 3 76 c2 68 0 80 -20 104 -15 17 -37 28
-63 32 -31 4 -45 12 -56 32 -18 31 -74 61 -116 61 -15 0 -42 -9 -59 -19z m104
-77 c12 -8 22 -26 22 -39 0 -22 4 -24 58 -27 56 -3 57 -3 60 -35 l3 -33 -181
0 -181 0 3 33 c3 31 4 32 56 35 45 3 52 6 52 24 0 51 62 75 108 42z"/>
<path d="M197 1082 c-15 -17 -17 -65 -17 -480 0 -405 2 -462 16 -476 14 -14
68 -16 444 -16 376 0 430 2 444 16 13 13 16 45 16 195 l0 180 -32 -3 -33 -3
-3 -157 -3 -158 -389 0 -390 0 0 425 0 425 35 0 c33 0 35 2 35 35 l0 35 -53 0
c-40 0 -58 -5 -70 -18z"/>
<path d="M960 1065 c0 -33 2 -35 35 -35 l35 0 0 -160 0 -160 35 0 35 0 0 178
c0 209 -1 212 -88 212 l-52 0 0 -35z"/>
<path d="M733 718 c-47 -46 -89 -91 -95 -102 -9 -16 4 -33 83 -113 75 -75 99
-93 119 -91 44 5 36 36 -26 99 l-58 59 221 0 c189 0 222 2 234 16 9 11 10 20
2 32 -9 15 -37 17 -228 20 l-218 2 52 55 c53 55 60 72 39 93 -22 22 -40 12
-125 -70z"/>
</g>
</svg>
